<svg width="275" height="150" viewBox="0 0 275 150" fill="none" xmlns="http://www.w3.org/2000/svg">
<path d="M10.7071 18.295C10.3166 17.9044 9.68342 17.9044 9.29289 18.295L2.92893 24.6589C2.53841 25.0495 2.53841 25.6826 2.92893 26.0731C3.31946 26.4637 3.95262 26.4637 4.34315 26.0731L10 20.4163L15.6569 26.0731C16.0474 26.4637 16.6805 26.4637 17.0711 26.0731C17.4616 25.6826 17.4616 25.0495 17.0711 24.6589L10.7071 18.295ZM10 19.0021H9L9 135.006H10H11L11 19.0021H10Z" fill="#222958"/>
<path d="M263.707 135.707C264.098 135.317 264.098 134.683 263.707 134.293L257.343 127.929C256.953 127.538 256.319 127.538 255.929 127.929C255.538 128.319 255.538 128.953 255.929 129.343L261.586 135L255.929 140.657C255.538 141.047 255.538 141.681 255.929 142.071C256.319 142.462 256.953 142.462 257.343 142.071L263.707 135.707ZM263 135V134L9 134V135V136L263 136V135Z" fill="#222958"/>
<path d="M269.484 135.812C269.505 135.771 269.547 135.708 269.609 135.625C269.672 135.531 269.703 135.453 269.703 135.391V135.344C269.703 135.333 269.693 135.323 269.672 135.312C269.651 135.292 269.635 135.281 269.625 135.281H269.344C269.073 135.365 268.771 135.422 268.438 135.453C268.094 135.484 267.766 135.495 267.453 135.484C267.13 135.474 266.854 135.448 266.625 135.406C266.396 135.354 266.26 135.297 266.219 135.234C266.177 135.172 266.255 135.099 266.453 135.016C266.651 134.922 267.026 134.828 267.578 134.734C267.609 134.734 267.682 134.724 267.797 134.703C267.901 134.672 268.021 134.646 268.156 134.625C268.281 134.604 268.401 134.583 268.516 134.562C268.63 134.531 268.703 134.516 268.734 134.516C268.776 134.505 268.865 134.5 269 134.5C269.135 134.49 269.271 134.479 269.406 134.469C269.552 134.458 269.688 134.453 269.812 134.453C269.948 134.453 270.042 134.453 270.094 134.453L270.172 134.359L271.391 132.312C271.432 132.24 271.505 132.182 271.609 132.141C271.724 132.099 271.812 132.078 271.875 132.078C272.01 132.078 272.104 132.135 272.156 132.25C272.208 132.354 272.234 132.458 272.234 132.562C272.234 132.573 272.229 132.583 272.219 132.594C272.219 132.604 272.219 132.615 272.219 132.625V132.688L271.531 134.359V134.453C271.552 134.391 271.589 134.359 271.641 134.359C271.703 134.359 271.75 134.359 271.781 134.359C271.938 134.359 272.089 134.411 272.234 134.516C272.38 134.62 272.453 134.76 272.453 134.938C272.453 135.021 272.427 135.089 272.375 135.141C272.323 135.193 272.26 135.234 272.188 135.266C272.115 135.297 272.036 135.323 271.953 135.344C271.87 135.354 271.797 135.359 271.734 135.359C271.609 135.359 271.49 135.344 271.375 135.312C271.271 135.281 271.156 135.266 271.031 135.266C270.917 135.266 270.812 135.328 270.719 135.453C270.625 135.568 270.536 135.724 270.453 135.922C270.38 136.109 270.318 136.323 270.266 136.562C270.214 136.802 270.167 137.036 270.125 137.266C270.083 137.495 270.052 137.708 270.031 137.906C270.021 138.104 270.016 138.255 270.016 138.359C270.016 138.401 270.016 138.484 270.016 138.609C270.026 138.734 270.031 138.818 270.031 138.859C270.042 138.922 270.068 138.979 270.109 139.031C270.151 139.073 270.193 139.12 270.234 139.172H270.594C271.01 139.172 271.422 139.078 271.828 138.891C272.245 138.703 272.635 138.49 273 138.25C273.021 138.24 273.068 138.193 273.141 138.109C273.224 138.016 273.312 137.927 273.406 137.844C273.5 137.75 273.583 137.667 273.656 137.594C273.74 137.521 273.797 137.484 273.828 137.484C273.901 137.484 273.969 137.521 274.031 137.594C274.094 137.667 274.125 137.745 274.125 137.828C274.125 138.026 274.052 138.219 273.906 138.406C273.771 138.594 273.594 138.771 273.375 138.938C273.156 139.094 272.906 139.24 272.625 139.375C272.344 139.51 272.062 139.625 271.781 139.719C271.51 139.812 271.25 139.885 271 139.938C270.76 139.99 270.562 140.016 270.406 140.016C270.26 140.016 270.109 140 269.953 139.969C269.797 139.927 269.656 139.865 269.531 139.781C269.406 139.698 269.302 139.594 269.219 139.469C269.135 139.344 269.094 139.188 269.094 139V137.266L269.484 135.812Z" fill="black"/>
<path d="M1.93359 14.4961C1.93359 14.457 1.93359 14.4023 1.93359 14.332C1.94141 14.2617 1.94531 14.2227 1.94531 14.2148L4.37109 5.16797C4.37891 5.15234 4.39844 5.10938 4.42969 5.03906C4.46094 4.96875 4.49219 4.90234 4.52344 4.83984C4.5625 4.76953 4.60547 4.71094 4.65234 4.66406C4.70703 4.60938 4.76172 4.58203 4.81641 4.58203C4.87109 4.58203 4.91406 4.60156 4.94531 4.64062C4.98438 4.67969 5.00781 4.72656 5.01562 4.78125C5.03125 4.82812 5.04297 4.88281 5.05078 4.94531C5.05859 5.00781 5.0625 5.05469 5.0625 5.08594C5.0625 5.10938 5.05859 5.14453 5.05078 5.19141C5.05078 5.23047 5.05078 5.25391 5.05078 5.26172L3.50391 10.6289C3.48828 10.9414 3.4375 11.2852 3.35156 11.6602C3.27344 12.0273 3.17969 12.3984 3.07031 12.7734C2.96094 13.1484 2.84766 13.5039 2.73047 13.8398C2.62109 14.1758 2.51953 14.4648 2.42578 14.707C2.44922 14.8086 2.42969 14.8711 2.36719 14.8945C2.30469 14.9102 2.25 14.918 2.20312 14.918C2.05469 14.918 1.97266 14.8828 1.95703 14.8125C1.94141 14.7344 1.93359 14.6289 1.93359 14.4961ZM4.37109 12.4453C4.37109 12.1797 4.41797 11.9492 4.51172 11.7539C4.61328 11.5586 4.73047 11.3711 4.86328 11.1914C4.99609 11.0117 5.125 10.832 5.25 10.6523C5.38281 10.4727 5.47656 10.2695 5.53125 10.043C5.55469 10.0352 5.59766 10.0273 5.66016 10.0195C5.72266 10.0039 5.76562 9.99609 5.78906 9.99609C5.82031 9.99609 5.86719 10.0039 5.92969 10.0195C5.99219 10.0273 6.02734 10.0352 6.03516 10.043C6.05859 10.0664 6.08594 10.1016 6.11719 10.1484C6.14844 10.1875 6.17188 10.2344 6.1875 10.2891C6.21094 10.3438 6.22656 10.3945 6.23438 10.4414C6.25 10.4883 6.25 10.5156 6.23438 10.5234L6.03516 10.7227C5.98047 10.7695 5.94531 10.8672 5.92969 11.0156C5.91406 11.1562 5.90625 11.3281 5.90625 11.5312C5.90625 11.7266 5.90625 11.9414 5.90625 12.1758C5.90625 12.4023 5.89453 12.6289 5.87109 12.8555C5.85547 13.082 5.82031 13.3008 5.76562 13.5117C5.71875 13.7148 5.64062 13.8867 5.53125 14.0273C5.52344 14.0273 5.48828 14.0312 5.42578 14.0391C5.36328 14.0391 5.32422 14.0391 5.30859 14.0391C5.12109 14.0391 4.96875 13.9844 4.85156 13.875C4.73438 13.7656 4.63672 13.6328 4.55859 13.4766C4.48828 13.3125 4.4375 13.1367 4.40625 12.9492C4.38281 12.7617 4.37109 12.5938 4.37109 12.4453ZM4.76953 12.7617C4.76953 12.8086 4.77344 12.8711 4.78125 12.9492C4.79688 13.0195 4.82031 13.0938 4.85156 13.1719C4.88281 13.25 4.91797 13.3203 4.95703 13.3828C4.99609 13.4375 5.04688 13.4648 5.10938 13.4648H5.12109C5.12891 13.4648 5.13672 13.4609 5.14453 13.4531C5.16016 13.4453 5.17969 13.4297 5.20312 13.4062C5.23438 13.3828 5.25 13.3633 5.25 13.3477C5.29688 13.2227 5.33203 13.0703 5.35547 12.8906C5.37891 12.7031 5.39062 12.5156 5.39062 12.3281C5.39844 12.1406 5.39844 11.9688 5.39062 11.8125C5.39062 11.6562 5.39062 11.543 5.39062 11.4727C5.25 11.4727 5.13672 11.5234 5.05078 11.625C4.97266 11.7266 4.91016 11.8477 4.86328 11.9883C4.82422 12.1211 4.79688 12.2617 4.78125 12.4102C4.77344 12.5586 4.76953 12.6758 4.76953 12.7617ZM0.175781 7.51172C0.175781 7.23828 0.226563 6.97266 0.328125 6.71484C0.429688 6.45703 0.566406 6.23047 0.738281 6.03516C0.917969 5.83203 1.12891 5.66797 1.37109 5.54297C1.61328 5.41797 1.875 5.35547 2.15625 5.35547C2.21094 5.35547 2.26953 5.36328 2.33203 5.37891C2.40234 5.38672 2.4375 5.43359 2.4375 5.51953C2.4375 5.58203 2.41016 5.62891 2.35547 5.66016C2.30859 5.69141 2.25 5.71875 2.17969 5.74219C2.11719 5.76562 2.05078 5.79688 1.98047 5.83594C1.91797 5.86719 1.87109 5.90625 1.83984 5.95312C1.92578 6.07031 1.99609 6.16797 2.05078 6.24609C2.10547 6.32422 2.14453 6.39844 2.16797 6.46875C2.19922 6.53906 2.21875 6.61328 2.22656 6.69141C2.24219 6.76172 2.25 6.84766 2.25 6.94922C2.25 7.11328 2.21875 7.27734 2.15625 7.44141C2.10156 7.59766 2.01953 7.73828 1.91016 7.86328C1.80859 7.98828 1.68359 8.09375 1.53516 8.17969C1.39453 8.25781 1.23828 8.29688 1.06641 8.29688C0.949219 8.29688 0.835938 8.27734 0.726562 8.23828C0.625 8.19922 0.53125 8.14453 0.445312 8.07422C0.367188 8.00391 0.300781 7.92188 0.246094 7.82812C0.199219 7.72656 0.175781 7.62109 0.175781 7.51172ZM0.574219 7.58203C0.574219 7.68359 0.609375 7.74609 0.679688 7.76953C0.75 7.79297 0.832031 7.80469 0.925781 7.80469C1.16797 7.80469 1.36328 7.72266 1.51172 7.55859C1.66797 7.39453 1.74609 7.19922 1.74609 6.97266C1.74609 6.91016 1.73438 6.83203 1.71094 6.73828C1.6875 6.64453 1.65234 6.55469 1.60547 6.46875C1.56641 6.375 1.51562 6.29688 1.45312 6.23438C1.39844 6.16406 1.33594 6.12891 1.26562 6.12891C1.25 6.12891 1.23047 6.13281 1.20703 6.14062C1.19141 6.14062 1.17969 6.14062 1.17188 6.14062C1.08594 6.25781 1.00391 6.37109 0.925781 6.48047C0.855469 6.58984 0.792969 6.70312 0.738281 6.82031C0.691406 6.92969 0.652344 7.04688 0.621094 7.17188C0.589844 7.29688 0.574219 7.43359 0.574219 7.58203ZM6.87891 12.5391C6.88672 12.5 6.91016 12.4297 6.94922 12.3281C6.98828 12.2266 7.02734 12.1172 7.06641 12C7.11328 11.8828 7.15625 11.7734 7.19531 11.6719C7.23438 11.5703 7.26172 11.5 7.27734 11.4609C7.32422 11.3359 7.36719 11.2539 7.40625 11.2148C7.45312 11.1758 7.53516 11.1562 7.65234 11.1562C7.77734 11.1562 7.85938 11.1992 7.89844 11.2852C7.9375 11.3711 7.95703 11.4727 7.95703 11.5898C7.95703 11.793 7.92578 11.9805 7.86328 12.1523C7.80859 12.3164 7.74609 12.4844 7.67578 12.6562C7.60547 12.8203 7.53906 13 7.47656 13.1953C7.42188 13.3828 7.39453 13.6016 7.39453 13.8516C7.39453 13.8828 7.39453 13.9297 7.39453 13.9922C7.39453 14.0469 7.39844 14.1055 7.40625 14.168C7.41406 14.2227 7.42969 14.2734 7.45312 14.3203C7.47656 14.3594 7.50781 14.3789 7.54688 14.3789C7.75 14.3789 7.95312 14.3398 8.15625 14.2617C8.36719 14.1758 8.57031 14.0781 8.76562 13.9688C8.96875 13.8516 9.16016 13.7266 9.33984 13.5938C9.52734 13.4531 9.69531 13.332 9.84375 13.2305C9.89844 13.1914 9.9375 13.1523 9.96094 13.1133C9.99219 13.0742 10.0195 13.0391 10.043 13.0078C10.0664 12.9688 10.0938 12.9375 10.125 12.9141C10.1641 12.8828 10.2227 12.8672 10.3008 12.8672C10.4023 12.8672 10.4844 12.8906 10.5469 12.9375C10.6172 12.9766 10.6523 13.0508 10.6523 13.1602C10.6523 13.207 10.6484 13.25 10.6406 13.2891C10.6406 13.3281 10.6211 13.3633 10.582 13.3945C10.5742 13.418 10.543 13.4492 10.4883 13.4883C10.4414 13.5273 10.3906 13.5703 10.3359 13.6172C10.2812 13.6562 10.2305 13.6953 10.1836 13.7344C10.1367 13.7656 10.1016 13.7852 10.0781 13.793C10.0703 13.793 10.0469 13.8047 10.0078 13.8281C9.97656 13.8438 9.95703 13.8516 9.94922 13.8516C9.94141 13.8594 9.92969 13.8711 9.91406 13.8867C9.90625 13.8945 9.90234 13.9023 9.90234 13.9102C9.73828 14.0352 9.55859 14.1641 9.36328 14.2969C9.17578 14.4219 8.97656 14.5391 8.76562 14.6484C8.55469 14.75 8.33594 14.8359 8.10938 14.9062C7.89062 14.9766 7.67188 15.0117 7.45312 15.0117C7.26562 15.0117 7.12109 14.9648 7.01953 14.8711C6.92578 14.7695 6.85547 14.6445 6.80859 14.4961C6.76172 14.3477 6.73438 14.1914 6.72656 14.0273C6.71875 13.8633 6.71484 13.7148 6.71484 13.582L6.87891 12.5391ZM7.44141 9.45703C7.44141 9.31641 7.46875 9.22266 7.52344 9.17578C7.57812 9.12891 7.67578 9.10547 7.81641 9.10547C7.88672 9.10547 7.95703 9.12109 8.02734 9.15234C8.09766 9.17578 8.13281 9.23828 8.13281 9.33984C8.13281 9.44141 8.08203 9.53516 7.98047 9.62109C7.88672 9.70703 7.79297 9.75 7.69922 9.75C7.60547 9.75 7.53906 9.72266 7.5 9.66797C7.46094 9.60547 7.44141 9.53516 7.44141 9.45703ZM11.0625 12.8789C11.0625 12.8789 11.0664 12.875 11.0742 12.8672C11.0898 12.8516 11.1016 12.8398 11.1094 12.832C11.125 12.7617 11.1562 12.6406 11.2031 12.4688C11.25 12.2969 11.3008 12.1133 11.3555 11.918C11.4102 11.7148 11.4609 11.5273 11.5078 11.3555C11.5625 11.1836 11.6016 11.0664 11.625 11.0039C11.6328 10.9727 11.6562 10.9062 11.6953 10.8047C11.7422 10.6953 11.793 10.5781 11.8477 10.4531C11.9023 10.3281 11.957 10.2031 12.0117 10.0781C12.0664 9.95312 12.1055 9.85938 12.1289 9.79688C12.1836 9.6875 12.2656 9.54297 12.375 9.36328C12.4922 9.18359 12.6211 9.01562 12.7617 8.85938C12.9102 8.69531 13.0625 8.55469 13.2188 8.4375C13.375 8.3125 13.5195 8.25 13.6523 8.25C13.7227 8.25 13.7773 8.26953 13.8164 8.30859C13.8633 8.34766 13.8945 8.39453 13.9102 8.44922C13.9336 8.49609 13.9492 8.55078 13.957 8.61328C13.9648 8.67578 13.9688 8.73047 13.9688 8.77734C13.9688 9.18359 13.9102 9.58984 13.793 9.99609C13.6836 10.3945 13.5312 10.7773 13.3359 11.1445C13.1406 11.5117 12.9062 11.8594 12.6328 12.1875C12.3672 12.5078 12.0859 12.7969 11.7891 13.0547C11.7812 13.0781 11.7695 13.125 11.7539 13.1953C11.7461 13.2656 11.7383 13.3164 11.7305 13.3477V13.3711C11.7305 13.5273 11.7695 13.6523 11.8477 13.7461C11.9336 13.8398 12.0352 13.9102 12.1523 13.957C12.2695 13.9961 12.3984 14.0234 12.5391 14.0391C12.6875 14.0547 12.8281 14.0625 12.9609 14.0625C13.0312 14.0625 13.1328 14.0273 13.2656 13.957C13.4062 13.8867 13.5469 13.8086 13.6875 13.7227C13.8359 13.6289 13.9805 13.5469 14.1211 13.4766C14.2617 13.4062 14.3672 13.3711 14.4375 13.3711C14.5078 13.3711 14.5625 13.3945 14.6016 13.4414C14.6406 13.4883 14.6602 13.5469 14.6602 13.6172C14.6602 13.7344 14.5703 13.8594 14.3906 13.9922C14.2109 14.125 14.0039 14.25 13.7695 14.3672C13.5352 14.4766 13.3086 14.5703 13.0898 14.6484C12.8789 14.7266 12.7383 14.7656 12.668 14.7656C12.4336 14.8125 12.2148 14.8164 12.0117 14.7773C11.8086 14.7305 11.6328 14.6562 11.4844 14.5547C11.3359 14.4453 11.2109 14.3164 11.1094 14.168C11.0156 14.0117 10.957 13.8516 10.9336 13.6875L11.0625 12.8789ZM13.2773 9.38672C13.207 9.38672 13.125 9.44531 13.0312 9.5625C12.9453 9.67188 12.8594 9.80078 12.7734 9.94922C12.6875 10.0977 12.6094 10.2422 12.5391 10.3828C12.4766 10.5156 12.4414 10.6055 12.4336 10.6523C12.4102 10.707 12.375 10.7969 12.3281 10.9219C12.2812 11.0469 12.2344 11.1797 12.1875 11.3203C12.1406 11.4531 12.0938 11.582 12.0469 11.707C12.0078 11.832 11.9805 11.9219 11.9648 11.9766H12.0234C12.0234 11.9766 12.0469 11.9492 12.0938 11.8945C12.1406 11.832 12.1914 11.7617 12.2461 11.6836C12.3086 11.6055 12.3711 11.5273 12.4336 11.4492C12.5039 11.3633 12.5547 11.293 12.5859 11.2383C12.6172 11.1914 12.6602 11.1211 12.7148 11.0273C12.7695 10.9258 12.8047 10.8633 12.8203 10.8398C12.8516 10.7539 12.8945 10.6406 12.9492 10.5C13.0039 10.3516 13.0547 10.207 13.1016 10.0664C13.1484 9.92578 13.1875 9.80469 13.2188 9.70312C13.2578 9.59375 13.2773 9.53125 13.2773 9.51562V9.38672ZM14.4375 13.1719C14.4531 13.125 14.4766 13.043 14.5078 12.9258C14.5469 12.8008 14.582 12.668 14.6133 12.5273C14.6523 12.3867 14.6836 12.2539 14.707 12.1289C14.7383 11.9961 14.7617 11.9062 14.7773 11.8594C14.8242 11.6719 14.8789 11.4688 14.9414 11.25C15.0117 11.0312 15.1055 10.8281 15.2227 10.6406C15.3398 10.4531 15.4883 10.3008 15.668 10.1836C15.8555 10.0586 16.0859 9.99609 16.3594 9.99609C16.4609 9.99609 16.5312 10.0352 16.5703 10.1133C16.6172 10.1836 16.6562 10.2617 16.6875 10.3477C16.6875 10.3789 16.6875 10.4375 16.6875 10.5234C16.6953 10.6016 16.6992 10.6562 16.6992 10.6875C16.6992 11.0234 16.6641 11.3203 16.5938 11.5781C16.5312 11.8359 16.4297 12.0742 16.2891 12.293C16.1562 12.5117 15.9922 12.7188 15.7969 12.9141C15.6016 13.1016 15.3789 13.3008 15.1289 13.5117C15.1211 13.5352 15.1094 13.5742 15.0938 13.6289C15.0781 13.6836 15.0703 13.7227 15.0703 13.7461V13.7695C15.0703 13.9102 15.0938 14.0234 15.1406 14.1094C15.1875 14.1953 15.25 14.2656 15.3281 14.3203C15.4141 14.3672 15.5078 14.3984 15.6094 14.4141C15.7188 14.4219 15.8359 14.4258 15.9609 14.4258C16.3281 14.4258 16.6797 14.375 17.0156 14.2734C17.3516 14.1719 17.6602 14.0078 17.9414 13.7812C17.9805 13.7422 18.0273 13.6875 18.082 13.6172C18.1445 13.5391 18.207 13.4609 18.2695 13.3828C18.332 13.3047 18.3984 13.2383 18.4688 13.1836C18.5391 13.1211 18.6133 13.0898 18.6914 13.0898C18.7695 13.0898 18.8164 13.1211 18.832 13.1836C18.8477 13.2461 18.8555 13.3086 18.8555 13.3711C18.8555 13.543 18.8008 13.707 18.6914 13.8633C18.5898 14.0117 18.4531 14.1484 18.2812 14.2734C18.1172 14.3906 17.9258 14.4961 17.707 14.5898C17.4961 14.6836 17.2852 14.7617 17.0742 14.8242C16.8633 14.8867 16.6602 14.9336 16.4648 14.9648C16.2773 14.9961 16.1172 15.0117 15.9844 15.0117C15.5703 15.0117 15.2227 14.9453 14.9414 14.8125C14.668 14.6719 14.4805 14.3945 14.3789 13.9805L14.4375 13.1719ZM16.1133 10.8633C15.957 11.0039 15.832 11.1328 15.7383 11.25C15.6523 11.3594 15.582 11.4766 15.5273 11.6016C15.4805 11.7188 15.4375 11.8477 15.3984 11.9883C15.3672 12.1289 15.332 12.293 15.293 12.4805C15.4414 12.3633 15.5625 12.2461 15.6562 12.1289C15.7578 12.0117 15.8398 11.8906 15.9023 11.7656C15.9648 11.6406 16.0117 11.5078 16.043 11.3672C16.0742 11.2188 16.0977 11.0508 16.1133 10.8633Z" fill="black"/>
</svg>
