<svg width="245" height="122" viewBox="0 0 245 122" fill="none" xmlns="http://www.w3.org/2000/svg">
<g clip-path="url(#clip0_32_467)">
<path d="M26.359 97.8L0 117H257V0L237.231 25.2L191.103 33.6L174.329 42.6H165.942L152.163 55.2H139.583L122.809 69H95.2518L76.6807 86.4H59.3077L42.5338 97.8H26.359Z" fill="url(#paint0_linear_32_467)" stroke="url(#paint1_linear_32_467)" stroke-width="3"/>
<line x1="36.5" y1="1.99158" x2="36.5" y2="120.009" stroke="#F7931A" stroke-opacity="0.3" stroke-dasharray="2 2"/>
<line x1="8.5" y1="2" x2="8.5" y2="120.017" stroke="#F7931A" stroke-opacity="0.3" stroke-dasharray="2 2"/>
<line x1="64.5" y1="1.99158" x2="64.5" y2="120.009" stroke="#F7931A" stroke-opacity="0.3" stroke-dasharray="2 2"/>
<line x1="92.5" y1="1.99158" x2="92.5" y2="120.009" stroke="#F7931A" stroke-opacity="0.3" stroke-dasharray="2 2"/>
<line x1="120.5" y1="1.99158" x2="120.5" y2="120.009" stroke="#F7931A" stroke-opacity="0.3" stroke-dasharray="2 2"/>
<line x1="148.5" y1="1.99158" x2="148.5" y2="120.009" stroke="#F7931A" stroke-opacity="0.3" stroke-dasharray="2 2"/>
<line x1="176.5" y1="1.99158" x2="176.5" y2="120.009" stroke="#F7931A" stroke-opacity="0.3" stroke-dasharray="2 2"/>
<line x1="204.5" y1="1.99158" x2="204.5" y2="120.009" stroke="#F7931A" stroke-opacity="0.3" stroke-dasharray="2 2"/>
<line x1="231.5" y1="1.99158" x2="231.5" y2="120.009" stroke="#F7931A" stroke-opacity="0.3" stroke-dasharray="2 2"/>
</g>
<defs>
<linearGradient id="paint0_linear_32_467" x1="128.5" y1="0" x2="128.5" y2="117" gradientUnits="userSpaceOnUse">
<stop stop-color="#F7931A"/>
<stop offset="1" stop-color="#F7931A" stop-opacity="0"/>
</linearGradient>
<linearGradient id="paint1_linear_32_467" x1="129" y1="32.5" x2="128.5" y2="117" gradientUnits="userSpaceOnUse">
<stop stop-color="#F7931A"/>
<stop offset="1" stop-color="#F7931A" stop-opacity="0"/>
</linearGradient>
<clipPath id="clip0_32_467">
<rect width="245" height="122" fill="white"/>
</clipPath>
</defs>
</svg>
