<svg width="40" height="431" viewBox="0 0 40 431" fill="none" xmlns="http://www.w3.org/2000/svg">
<line x1="20.5" y1="24" x2="20.5" y2="412" stroke="#222958" stroke-width="5"/>
<ellipse cx="20" cy="19.5" rx="20" ry="19.5" fill="#FE8B00"/>
<path d="M22.7592 11.0909V30H18.7614V14.8857H18.6506L14.3203 17.6001V14.0547L19.0014 11.0909H22.7592Z" fill="white"/>
<ellipse cx="20" cy="411.5" rx="20" ry="19.5" fill="#FE8B00"/>
<path d="M19.522 421.259C18.1432 421.259 16.9152 421.022 15.8381 420.548C14.767 420.067 13.9207 419.409 13.299 418.572C12.6835 417.728 12.3665 416.756 12.348 415.654H16.3736C16.3982 416.116 16.549 416.522 16.826 416.873C17.1091 417.218 17.4846 417.485 17.9524 417.676C18.4202 417.867 18.9465 417.962 19.5312 417.962C20.1406 417.962 20.6792 417.855 21.147 417.639C21.6148 417.424 21.9811 417.125 22.2457 416.744C22.5104 416.362 22.6428 415.922 22.6428 415.423C22.6428 414.919 22.5012 414.472 22.218 414.085C21.9411 413.691 21.541 413.383 21.0178 413.161C20.5007 412.94 19.8852 412.829 19.1712 412.829H17.4077V409.893H19.1712C19.7744 409.893 20.3068 409.788 20.7685 409.579C21.2363 409.37 21.5994 409.08 21.858 408.711C22.1165 408.335 22.2457 407.898 22.2457 407.4C22.2457 406.926 22.1319 406.51 21.9041 406.153C21.6825 405.79 21.3686 405.507 20.9624 405.304C20.5623 405.101 20.0945 404.999 19.5589 404.999C19.0173 404.999 18.5218 405.098 18.0724 405.295C17.6231 405.486 17.263 405.759 16.9922 406.116C16.7214 406.473 16.5767 406.892 16.5582 407.372H12.7266C12.745 406.283 13.0559 405.322 13.6591 404.491C14.2623 403.661 15.0748 403.011 16.0966 402.543C17.1245 402.069 18.2848 401.832 19.5774 401.832C20.8823 401.832 22.0241 402.069 23.0028 402.543C23.9815 403.017 24.7417 403.657 25.2834 404.464C25.8312 405.264 26.102 406.163 26.0959 407.16C26.102 408.219 25.7727 409.102 25.108 409.81C24.4493 410.518 23.5907 410.967 22.532 411.158V411.305C23.9231 411.484 24.9818 411.967 25.7081 412.755C26.4406 413.537 26.8037 414.515 26.7976 415.691C26.8037 416.768 26.4929 417.725 25.8651 418.562C25.2434 419.4 24.3847 420.058 23.2891 420.538C22.1934 421.018 20.9377 421.259 19.522 421.259Z" fill="white"/>
<ellipse cx="20" cy="215.5" rx="20" ry="19.5" fill="#FE8B00"/>
<path d="M14.5327 224V221.119L21.2635 214.887C21.8359 214.333 22.3161 213.835 22.7038 213.391C23.0978 212.948 23.3963 212.514 23.5994 212.089C23.8026 211.659 23.9041 211.194 23.9041 210.695C23.9041 210.141 23.7779 209.664 23.5256 209.264C23.2732 208.858 22.9285 208.547 22.4915 208.332C22.0545 208.11 21.5589 207.999 21.005 207.999C20.4264 207.999 19.9216 208.116 19.4908 208.35C19.0599 208.584 18.7275 208.92 18.4936 209.357C18.2597 209.794 18.1428 210.314 18.1428 210.917H14.348C14.348 209.68 14.6281 208.606 15.1882 207.695C15.7483 206.784 16.5331 206.079 17.5426 205.58C18.5521 205.082 19.7154 204.832 21.0327 204.832C22.3868 204.832 23.5656 205.072 24.5689 205.553C25.5784 206.027 26.3632 206.685 26.9233 207.528C27.4834 208.372 27.7635 209.338 27.7635 210.428C27.7635 211.142 27.6219 211.846 27.3388 212.542C27.0618 213.237 26.5663 214.01 25.8523 214.859C25.1383 215.703 24.1319 216.715 22.8331 217.897L20.0724 220.602V220.732H28.0128V224H14.5327Z" fill="white"/>
</svg>
